<svg xmlns="http://www.w3.org/2000/svg" viewBox="0 0 512 512" fill="none">
  <defs>
    <linearGradient id="grad1" x1="0%" y1="0%" x2="100%" y2="100%">
      <stop offset="0%" style="stop-color:#6366f1;stop-opacity:1" />
      <stop offset="100%" style="stop-color:#8b5cf6;stop-opacity:1" />
    </linearGradient>
    <linearGradient id="grad2" x1="100%" y1="0%" x2="0%" y2="100%">
      <stop offset="0%" style="stop-color:#06b6d4;stop-opacity:1" />
      <stop offset="100%" style="stop-color:#3b82f6;stop-opacity:1" />
    </linearGradient>
    <linearGradient id="grad3" x1="0%" y1="0%" x2="100%" y2="100%">
      <stop offset="0%" style="stop-color:#6366f1;stop-opacity:1" />
      <stop offset="50%" style="stop-color:#8b5cf6;stop-opacity:1" />
      <stop offset="100%" style="stop-color:#06b6d4;stop-opacity:1" />
    </linearGradient>
  </defs>

  <!-- Background -->
  <rect width="512" height="512" rx="64" fill="#0f0f1a" />

  <!-- Left twin -->
  <circle cx="160" cy="110" r="68" fill="url(#grad1)" />
  <path d="M160 178 C160 178 90 210 90 290 L90 410 C90 428 104 442 122 442 L198 442 C216 442 230 428 230 410 L230 290 C230 210 160 178 160 178Z" fill="url(#grad1)" />

  <!-- Right twin -->
  <circle cx="352" cy="110" r="68" fill="url(#grad2)" />
  <path d="M352 178 C352 178 282 210 282 290 L282 410 C282 428 296 442 314 442 L390 442 C408 442 422 428 422 410 L422 290 C422 210 352 178 352 178Z" fill="url(#grad2)" />

  <!-- Connection beams -->
  <line x1="226" y1="262" x2="286" y2="262" stroke="url(#grad3)" stroke-width="5" opacity="0.7" />
  <line x1="226" y1="300" x2="286" y2="300" stroke="url(#grad3)" stroke-width="6" opacity="0.9" />
  <line x1="226" y1="338" x2="286" y2="338" stroke="url(#grad3)" stroke-width="5" opacity="0.7" />

  <!-- Center sync symbol -->
  <circle cx="256" cy="300" r="20" fill="none" stroke="url(#grad3)" stroke-width="3.5" />
  <path d="M247 296 L256 287 L265 296" fill="none" stroke="url(#grad3)" stroke-width="3.5" stroke-linecap="round" stroke-linejoin="round" />
  <path d="M265 304 L256 313 L247 304" fill="none" stroke="url(#grad3)" stroke-width="3.5" stroke-linecap="round" stroke-linejoin="round" />

</svg>
